<?xml version="1.0" standalone="no"?>
<!DOCTYPE svg PUBLIC "-//W3C//DTD SVG 20010904//EN"
 "http://www.w3.org/TR/2001/REC-SVG-20010904/DTD/svg10.dtd">
<svg version="1.0" xmlns="http://www.w3.org/2000/svg" viewBox="0 0 512.000000 512.000000"
 preserveAspectRatio="xMidYMid meet">
<g transform="translate(0.000000,512.000000) scale(0.100000,-0.100000)"
fill="currentColor" stroke="none">
<path d="M0 2560 l0 -2560 2560 0 2560 0 0 2560 0 2560 -2560 0 -2560 0 0
-2560z m2956 1821 c78 -35 74 10 74 -863 0 -772 0 -774 21 -797 34 -36 62 -41
226 -41 125 0 160 -3 183 -16 79 -47 79 -161 0 -207 -22 -13 -63 -17 -216 -18
-176 -2 -193 0 -249 21 -83 32 -175 124 -204 203 -21 57 -21 67 -21 848 0 886
-4 834 73 870 52 23 62 23 113 0z m-619 -11 c91 -55 78 -183 -24 -226 -42 -18
-67 -18 -110 3 -46 21 -73 67 -73 122 0 37 6 49 39 82 34 35 44 39 87 39 31 0
61 -7 81 -20z m1763 -5 c60 -31 78 -127 33 -177 -36 -41 -73 -48 -248 -48
-182 0 -216 7 -253 55 -40 50 -21 139 36 169 40 22 390 23 432 1z m-1785 -409
c19 -8 44 -30 55 -48 19 -32 20 -49 20 -509 0 -468 0 -477 -21 -503 -61 -78
-175 -70 -221 15 -17 32 -18 63 -16 506 l3 471 25 27 c27 29 73 54 103 55 10
0 33 -6 52 -14z m1731 -16 c83 -29 132 -60 195 -127 95 -99 129 -192 129 -351
0 -108 -13 -142 -64 -166 -29 -14 -78 -16 -349 -16 l-316 0 10 -32 c16 -57 61
-110 119 -141 50 -26 62 -29 136 -25 67 4 94 10 158 41 105 50 155 50 202 3
27 -27 34 -42 34 -73 0 -64 -29 -97 -123 -143 -256 -124 -523 -79 -680 115
-84 105 -92 137 -92 380 l0 210 32 67 c66 140 198 243 358 278 58 13 184 3
251 -20z m-1700 -1270 c45 -28 71 -95 55 -143 -19 -57 -76 -97 -139 -97 -57 0
-132 73 -132 128 0 38 31 93 64 113 41 25 110 25 152 -1z m1615 -3 c128 -86
22 -277 -125 -226 -74 26 -112 128 -70 188 43 61 134 79 195 38z m-3026 -433
c19 -9 40 -26 48 -37 8 -12 69 -195 136 -407 76 -241 128 -390 139 -398 37
-28 87 -28 125 0 12 9 60 147 141 403 132 421 140 437 211 451 50 9 83 -2 122
-41 25 -25 33 -42 33 -69 0 -52 -246 -823 -277 -868 -46 -67 -129 -118 -227
-138 -132 -27 -288 37 -361 149 -26 40 -275 810 -275 850 0 38 21 73 59 98 40
27 80 29 126 7z m1403 -4 c62 -38 62 -42 62 -540 0 -488 -1 -496 -54 -538 -59
-46 -143 -33 -183 27 l-23 34 0 478 0 477 27 32 c14 18 36 36 47 40 37 15 90
11 124 -10z m1046 -13 c58 -27 134 -96 159 -143 8 -16 60 -171 115 -344 164
-516 154 -479 142 -515 -22 -66 -89 -102 -156 -83 -56 15 -79 46 -112 149
l-30 94 -268 0 -268 0 -26 -85 c-36 -114 -45 -129 -96 -151 -36 -16 -50 -18
-82 -10 -44 12 -77 43 -93 89 -10 28 1 70 111 419 67 213 131 405 141 425 41
81 117 143 212 174 64 21 183 12 251 -19z m490 -1271 c46 -19 66 -52 66 -107
0 -51 -27 -91 -75 -109 -15 -6 -103 -10 -197 -10 -137 0 -177 3 -204 16 -84
40 -85 166 -2 207 45 22 361 24 412 3z"/>
<path d="M3797 3720 c-72 -22 -147 -121 -147 -192 l0 -28 236 0 237 0 -6 37
c-10 60 -50 125 -96 158 -37 26 -52 30 -119 32 -42 1 -90 -2 -105 -7z"/>
<path d="M3204 2003 c-12 -2 -29 -12 -37 -21 -13 -15 -127 -350 -127 -374 0
-4 88 -8 195 -8 107 0 195 3 195 6 0 13 -104 331 -116 355 -11 23 -63 52 -83
48 -3 -1 -16 -4 -27 -6z"/>
</g>
</svg>
